<?xml version="1.0" encoding="UTF-8"?>
<svg version="1.1" xmlns="http://www.w3.org/2000/svg" width="364" height="398">
<path d="M0 0 C0 49.83 0 99.66 0 151 C-0.66 151.33 -1.32 151.66 -2 152 C-4.67982803 150.76758191 -7.2291491 149.47511674 -9.8125 148.0625 C-10.56990479 147.65515625 -11.32730957 147.2478125 -12.10766602 146.828125 C-18.05465363 143.59670538 -23.83524525 140.14147233 -29.55859375 136.53125 C-31.88611351 135.01678395 -31.88611351 135.01678395 -34 134 C-34 104.96 -34 75.92 -34 46 C-39.94 48.31 -45.88 50.62 -52 53 C-55.40979305 54.25879859 -58.81654243 55.50653398 -62.2421875 56.71875 C-63.10151886 57.02518433 -63.96085022 57.33161865 -64.84622192 57.64733887 C-67.52162673 58.60064787 -70.19829171 59.55035811 -72.875 60.5 C-74.6472158 61.1312848 -76.41935139 61.76279483 -78.19140625 62.39453125 C-86.97204135 65.52160205 -95.76213801 68.62030471 -104.5625 71.69140625 C-112.73345069 74.54322419 -120.86757042 77.48484319 -128.98046875 80.49804688 C-129.87636719 80.82740234 -130.77226562 81.15675781 -131.6953125 81.49609375 C-132.47922363 81.78669678 -133.26313477 82.0772998 -134.07080078 82.37670898 C-136 83 -136 83 -138 83 C-137.91457533 92.49479735 -137.81932861 101.98943598 -137.71247292 111.48401642 C-137.66311242 115.89556415 -137.61679281 120.30709456 -137.578125 124.71875 C-137.50332404 160.5502717 -137.50332404 160.5502717 -132.8125 196 C-132.59746826 197.06774658 -132.38243652 198.13549316 -132.16088867 199.2355957 C-126.92953969 224.29255791 -118.56464277 248.19462435 -105 270 C-104.39285156 270.99257813 -103.78570312 271.98515625 -103.16015625 273.0078125 C-100.0355043 278.0264001 -96.74963907 282.81572744 -93.06640625 287.44140625 C-92 289 -92 289 -92 291 C-91.34 291 -90.68 291 -90 291 C-88.4921875 292.6796875 -88.4921875 292.6796875 -86.875 294.875 C-86.33617188 295.59429687 -85.79734375 296.31359375 -85.2421875 297.0546875 C-84 299 -84 299 -84 301 C-83.01 301.33 -82.02 301.66 -81 302 C-79.43725586 303.59277344 -79.43725586 303.59277344 -77.77734375 305.609375 C-74.25735181 309.7518439 -70.52837902 313.53597022 -66.5625 317.25 C-65.87800781 317.89114746 -65.19351563 318.53229492 -64.48828125 319.19287109 C-55.04553143 327.88821348 -44.88256238 335.19839851 -34 342 C-34 308.01 -34 274.02 -34 239 C-30.29572422 240.48171031 -27.12860653 241.95394484 -23.69140625 243.8984375 C-22.69689453 244.46046875 -21.70238281 245.0225 -20.67773438 245.6015625 C-19.64970703 246.18679687 -18.62167969 246.77203125 -17.5625 247.375 C-16.53833984 247.9525 -15.51417969 248.53 -14.45898438 249.125 C-8.76348447 252.35429315 -8.76348447 252.35429315 -6 254 C-4.96809036 254.42457489 -3.93618073 254.84914978 -2.8730011 255.28659058 C0.49676441 258.46916975 0.4669801 259.22200851 0.7215271 263.68206787 C0.73896948 266.1314446 0.72286075 268.58118973 0.68115234 271.03027344 C0.6794595 272.3805992 0.68041069 273.7309305 0.68380737 275.08125305 C0.68552913 278.74460663 0.65025247 282.40678178 0.60836363 286.06986141 C0.57085832 289.89882877 0.56733148 293.7278231 0.56021118 297.5569458 C0.54156155 304.80672171 0.49232359 312.05595482 0.43211424 319.30549169 C0.36505222 327.55928048 0.33206099 335.81309519 0.30194163 344.0670886 C0.23922412 361.04503972 0.13368751 378.02246247 0 395 C-4.10261483 396.36753828 -6.45872101 394.78022715 -10.1875 393.0625 C-10.89438965 392.744021 -11.6012793 392.42554199 -12.32958984 392.09741211 C-43.7255537 377.81040664 -72.16247055 359.02837481 -97 335 C-97.74507813 334.29488281 -98.49015625 333.58976562 -99.2578125 332.86328125 C-119.73937758 313.06443501 -135.91067583 287.64583155 -148 262 C-148.51175781 260.91847656 -149.02351563 259.83695312 -149.55078125 258.72265625 C-156.71616194 242.78885821 -161.82229604 226.1487298 -165.375 209.0625 C-165.73271484 207.34244751 -165.73271484 207.34244751 -166.09765625 205.58764648 C-169.76613631 186.98150793 -170.27382428 168.99980387 -170.1953125 150.08984375 C-170.19157481 147.42370778 -170.1886328 144.75758262 -170.18673706 142.09144592 C-170.18057402 135.83751791 -170.16423501 129.58366163 -170.14403808 123.3297649 C-170.12151575 116.19771485 -170.11064502 109.06566098 -170.10064721 101.93358409 C-170.0798628 87.28901974 -170.04479003 72.64451114 -170 58 C-168.27430837 57.37145592 -166.54852023 56.7431768 -164.82269287 56.11500549 C-163.86165524 55.76510339 -162.9006176 55.41520128 -161.91045761 55.05469608 C-157.45350886 53.43958017 -152.98514178 51.85727778 -148.515625 50.27734375 C-147.54949783 49.93538467 -146.58337067 49.5934256 -145.58796692 49.24110413 C-143.5343933 48.51429466 -141.48074701 47.78769047 -139.42703247 47.0612793 C-136.20305505 45.92089464 -132.97930232 44.77987696 -129.75561523 43.63867188 C-125.46782687 42.12077996 -121.17998926 40.60302737 -116.89208984 39.08544922 C-109.28166694 36.39187686 -101.67146224 33.69769609 -94.0625 31 C-92.83708496 30.56558594 -91.61166992 30.13117187 -90.34912109 29.68359375 C-83.71063921 27.32709984 -77.08025513 24.94949012 -70.45629883 22.55249023 C-59.24267527 18.49475956 -47.99562299 14.54578523 -36.71289062 10.68408203 C-30.84737055 8.67641549 -24.9914412 6.64906812 -19.15625 4.5546875 C-18.0935791 4.17578369 -17.0309082 3.79687988 -15.93603516 3.40649414 C-13.94345566 2.69435913 -11.95338491 1.97515206 -9.96630859 1.24780273 C-9.08797363 0.93528564 -8.20963867 0.62276855 -7.3046875 0.30078125 C-6.54140137 0.02403564 -5.77811523 -0.25270996 -4.99169922 -0.5378418 C-3 -1 -3 -1 0 0 Z " fill="#106DF9" transform="translate(170,1)"/>
<path d="M0 0 C26.3523371 8.72100114 26.3523371 8.72100114 37.125 12.5 C38.16998657 12.86375732 38.16998657 12.86375732 39.23608398 13.23486328 C43.87794817 14.87794817 43.87794817 14.87794817 45 16 C45.15873955 18.21687994 45.25133837 20.43855298 45.31640625 22.66015625 C45.33718735 23.32462265 45.35796844 23.98908905 45.37937927 24.6736908 C45.44493658 26.80318543 45.50378785 28.93280668 45.5625 31.0625 C45.60567939 32.50326847 45.64929349 33.94402399 45.69335938 35.38476562 C45.80062393 38.9230404 45.90187371 42.46145869 46 46 C46.65782471 46.34144043 47.31564941 46.68288086 47.9934082 47.03466797 C67.70841041 57.27021569 87.37339405 67.59613974 107 78 C109.03270582 112.21721468 97.56183035 149.90327916 82 180 C81.46117187 181.13566406 80.92234375 182.27132812 80.3671875 183.44140625 C71.26519044 202.47935298 58.4317947 218.84589127 45 235 C44.39800781 235.73863281 43.79601562 236.47726562 43.17578125 237.23828125 C41.82973821 238.86461413 40.42181227 240.43947433 39 242 C38.34 242 37.68 242 37 242 C37 242.66 37 243.32 37 244 C36.34 244 35.68 244 35 244 C34.68289063 244.81791016 34.68289063 244.81791016 34.359375 245.65234375 C32.50806394 248.84957924 29.96369649 251.11109832 27.25 253.5625 C26.67362793 254.0877124 26.09725586 254.6129248 25.50341797 255.15405273 C19.81643322 260.27203185 13.88044626 265.0285828 7.78271484 269.64550781 C6.01724945 270.98689401 4.26846108 272.34809681 2.51953125 273.7109375 C-15.69512817 287.69598502 -38.08702404 300.675243 -60 308 C-60.99 307.67 -61.98 307.34 -63 307 C-63 249.25 -63 191.5 -63 132 C-56.9444654 134.01851153 -51.58935985 135.99124661 -46 138.875 C-45.35289062 139.20113281 -44.70578125 139.52726563 -44.0390625 139.86328125 C-38.9463439 142.4498992 -34.00007682 145.22217955 -29 148 C-29 182.98 -29 217.96 -29 254 C-15.63245175 245.08830116 -3.56407389 236.04360924 8 225 C9.20462891 223.85724609 9.20462891 223.85724609 10.43359375 222.69140625 C45.48822547 188.60882671 62.84868131 144.04023481 72 97 C71.19546387 96.76297363 70.39092773 96.52594727 69.56201172 96.28173828 C65.16767452 94.70049974 61.14642378 92.64317391 57.0078125 90.4921875 C56.14421112 90.04787384 55.28060974 89.60356018 54.39083862 89.14578247 C51.63346689 87.72620423 48.8791327 86.30085053 46.125 84.875 C43.41546112 83.4766221 40.70529015 82.07947876 37.99481201 80.68292236 C36.21380751 79.76512728 34.43324782 78.84646853 32.65313721 77.92694092 C28.60369991 75.83852167 24.54870391 73.76549997 20.46386719 71.74707031 C19.75769257 71.39798615 19.05151794 71.04890198 18.32394409 70.6892395 C16.46269139 69.77308584 14.5984243 68.86306297 12.73388672 67.95361328 C12.15538467 67.64463608 11.57688263 67.33565887 10.98085022 67.01731873 C8.91920485 65.92403482 8.91920485 65.92403482 6.3578949 64.90858459 C3.42452427 63.52413153 1.29955542 62.29680097 -1 60 C-2.3968099 55.50733543 -2.19182985 51.21128308 -2.01171875 46.54296875 C-1.99405205 44.59491081 -1.99405205 44.59491081 -1.97602844 42.60749817 C-1.94365044 39.1684449 -1.85040587 35.73362314 -1.74493408 32.29614258 C-1.64935775 28.7871403 -1.61677727 25.2775638 -1.57617188 21.76757812 C-1.50487733 16.65572125 -1.41386398 11.54476604 -1.2722168 6.43432617 C-1.24427536 5.40651535 -1.21633392 4.37870453 -1.18754578 3.31974792 C-1 1 -1 1 0 0 Z " fill="#116DF8" transform="translate(257,89)"/>
<path d="M0 0 C30.12626863 9.84290254 60.01143288 20.35960924 89.8973999 30.90570068 C94.17676128 32.41504835 98.45746625 33.92056263 102.73828125 35.42578125 C124.85323671 43.20620725 146.92542149 51.10577987 169 59 C169 83.75 169 108.5 169 134 C164.78070248 133.1561405 162.54014752 132.41666425 158.91015625 130.41796875 C157.96076172 129.89783203 157.01136719 129.37769531 156.03320312 128.84179688 C154.56270508 128.02291992 154.56270508 128.02291992 153.0625 127.1875 C151.59780273 126.38602539 151.59780273 126.38602539 150.10351562 125.56835938 C147.38536037 124.07014905 144.67620817 122.57202616 142 121 C140.91436768 120.43547119 139.82873535 119.87094238 138.71020508 119.28930664 C136 117 136 117 135.31884766 113.51660156 C135.31979172 112.1409102 135.35336488 110.76497699 135.4140625 109.390625 C135.42255219 108.66381531 135.43104187 107.93700562 135.43978882 107.18817139 C135.47329399 104.87391879 135.54855068 102.56319295 135.625 100.25 C135.65510411 98.67843587 135.68247917 97.10681692 135.70703125 95.53515625 C135.7730735 91.68875187 135.87656079 87.84497309 136 84 C134.741875 83.649375 133.48375 83.29875 132.1875 82.9375 C126.32922234 81.18011917 120.62857783 79.05636881 114.90005493 76.92294312 C108.46122846 74.52850525 102.0003418 72.20342518 95.5234375 69.9140625 C94.53305481 69.56390076 93.54267212 69.21373901 92.52227783 68.85296631 C89.47351706 67.77603476 86.42431243 66.70036845 83.375 65.625 C66.89465874 59.80966086 50.44360376 53.91969735 34 48 C33.67 87.6 33.34 127.2 33 168 C35.97 168.99 35.97 168.99 39 170 C41.48475739 171.1735107 43.93171607 172.37176255 46.375 173.625 C47.80069001 174.34783623 49.22647388 175.07048737 50.65234375 175.79296875 C51.73684814 176.34476807 51.73684814 176.34476807 52.84326172 176.90771484 C54.89173766 177.94517029 56.94597191 178.9697385 59.00390625 179.98828125 C65.95640811 183.43132646 72.84755863 186.96299589 79.6875 190.625 C86.67546397 194.36483403 93.75218964 197.78575367 101 201 C100.371369 206.93975703 98.78974125 212.2908986 96.875 217.9375 C96.56151611 218.86336914 96.24803223 219.78923828 95.92504883 220.74316406 C88.7060731 241.68668235 78.22501749 264.48288031 62 280 C60.65950473 277.31900947 60.8801948 275.26688794 60.88647461 272.26513672 C60.88655014 271.06404266 60.88662567 269.86294861 60.88670349 268.62545776 C60.89186478 267.32335358 60.89702606 266.02124939 60.90234375 264.6796875 C60.90420862 263.33733167 60.9056322 261.99497516 60.90663147 260.65261841 C60.91045122 257.11804325 60.92027688 253.58350913 60.93133545 250.0489502 C60.94156122 246.44279536 60.94613159 242.8366339 60.95117188 239.23046875 C60.96189962 232.15362904 60.97896955 225.0768172 61 218 C59.60998024 217.5492234 59.60998024 217.5492234 58.19187927 217.08934021 C54.83636434 215.94415362 51.8206961 214.51508655 48.66015625 212.91015625 C48.06438278 212.60948746 47.46860931 212.30881866 46.8547821 211.9990387 C45.58110148 211.35601757 44.30827906 210.71129416 43.03625488 210.06500244 C39.69155728 208.36617573 36.34009454 206.68082744 32.98828125 204.99609375 C32.31562225 204.65779541 31.64296326 204.31949707 30.94992065 203.97094727 C21.98611421 199.47328056 12.92963505 195.16971128 3.86230469 190.88525391 C2.56842954 190.27020523 1.28137356 189.64068678 0 189 C-0.15374192 164.50514936 -0.30177938 140.01027005 -0.4429636 115.51534367 C-0.50864701 104.14277916 -0.57622061 92.77023167 -0.64819336 81.39770508 C-0.71089576 71.4892513 -0.77010334 61.58078397 -0.82505554 51.67228407 C-0.85429506 46.42235713 -0.88532437 41.17245413 -0.92053413 35.92256355 C-0.95357898 30.98725297 -0.98197224 26.05193808 -1.00670624 21.11657906 C-1.01664876 19.2996365 -1.02833084 17.48270255 -1.04183006 15.66578293 C-1.05992428 13.19634135 -1.07191507 10.72694578 -1.08229065 8.25746155 C-1.08909444 7.52887611 -1.09589823 6.80029067 -1.10290819 6.04962689 C-1.10673307 4.36607277 -1.05908706 2.68252126 -1 1 C-0.67 0.67 -0.34 0.34 0 0 Z " fill="#106CF9" transform="translate(195,0)"/>
<path d="M0 0 C-0.33 62.37 -0.66 124.74 -1 189 C-7.30055576 185.84972212 -10.25887588 179.7788233 -14 174 C-14.36786621 173.44151367 -14.73573242 172.88302734 -15.11474609 172.30761719 C-27.43808928 153.45362342 -35.54290066 132.77453079 -41 111 C-41.17998535 110.28602051 -41.3599707 109.57204102 -41.54541016 108.83642578 C-42.51113766 104.912847 -43.30466144 100.97970368 -44 97 C-44.19207031 95.97003906 -44.38414063 94.94007813 -44.58203125 93.87890625 C-47.82897882 73.67308142 -47.08560304 52.67374405 -47.125 32.25 C-47.12767883 31.44930084 -47.13035767 30.64860168 -47.13311768 29.82363892 C-47.13890536 27.55425334 -47.13728656 25.28501099 -47.1328125 23.015625 C-47.13168457 21.70883789 -47.13055664 20.40205078 -47.12939453 19.05566406 C-47 16 -47 16 -46 14 C-44.26748657 13.18330383 -44.26748657 13.18330383 -41.98681641 12.38012695 C-41.13568268 12.07673904 -40.28454895 11.77335114 -39.40762329 11.46076965 C-38.48162323 11.13984848 -37.55562317 10.81892731 -36.6015625 10.48828125 C-35.65566254 10.1557988 -34.70976257 9.82331635 -33.73519897 9.48075867 C-31.7306796 8.7786471 -29.72482655 8.08033355 -27.71777344 7.38549805 C-24.64077923 6.3179744 -21.57030874 5.23306427 -18.5 4.14648438 C-16.55505838 3.46768639 -14.60975725 2.78991745 -12.6640625 2.11328125 C-11.7421109 1.78628738 -10.8201593 1.45929352 -9.87026978 1.12239075 C-9.01283173 0.82845932 -8.15539368 0.53452789 -7.27197266 0.23168945 C-6.51776031 -0.03097214 -5.76354797 -0.29363373 -4.98648071 -0.56425476 C-3 -1 -3 -1 0 0 Z " fill="#106DFA" transform="translate(108,90)"/>
<path d="" fill="#E4E4E4" transform="translate(0,0)"/>
<path d="" fill="#E1E1E1" transform="translate(0,0)"/>
<path d="" fill="#E4E4E4" transform="translate(0,0)"/>
</svg>
